# xmcd CD database file
#
# Track frame offsets:
#	150
#	7539
#	24343
#	40395
#	63957
#	83496
#	108154
#	125295
#	140224
#	160114
#	181218
#	195952
#
# Disc length: 2936 seconds
#
# Revision: 1
# Processed by: cddbd v1.5.1PL0 Copyright (c) Steve Scherf et al.
# Submitted via: CDex 1.51
#
DISCID=840b760c
DTITLE=Aguakate - De Otra Galaxia
DYEAR=2004
DGENRE=Merengue
TTITLE0=Intro
TTITLE1=Gallinita
TTITLE2=Mueve Esa Vaina
TTITLE3=La Agarradera
TTITLE4=El Divorcio
TTITLE5=Solo Con Un Beso
TTITLE6=Novela Musical
TTITLE7=Caramelo
TTITLE8=Tus Besos
TTITLE9=Todo El Mundo
TTITLE10=Reggaeton Ripiao
TTITLE11=Pajaro Loco
EXTD=YEAR: 2004
EXTT0=
EXTT1=
EXTT2=
EXTT3=
EXTT4=
EXTT5=
EXTT6=
EXTT7=
EXTT8=
EXTT9=
EXTT10=
EXTT11=
PLAYORDER=
